<svg xmlns="http://www.w3.org/2000/svg" viewBox="0 0 13.46 19"><defs><style>.cls-1{fill:#4a59ed;}</style></defs><title>0</title><g id="cnt"><path class="cls-1" d="M6.88,18.9a1.72,1.72,0,0,1-.81.08,1.44,1.44,0,0,1-.94-.61A2.53,2.53,0,0,1,5,18.15Q2.66,14,.31,9.81A2.17,2.17,0,0,1,.11,8C.49,6.74.86,5.47,1.23,4.21A1.55,1.55,0,0,1,2.5,3,1.4,1.4,0,0,1,3,3a.25.25,0,0,0,.29-.12,8.57,8.57,0,0,1,2-2.05A4.17,4.17,0,0,1,7.05,0,1.48,1.48,0,0,1,8.86,1.45a4.41,4.41,0,0,1-.5,2.17c-.13.28-.28.55-.43.84a7.36,7.36,0,0,1,1.31,2c1.34,2.35,2.66,4.72,4,7.08a1.43,1.43,0,0,1,0,1.62,2.73,2.73,0,0,1-.33.35ZM4.93,6.06l.15-.13,0,0a8,8,0,0,0,2.4-3.46,2.21,2.21,0,0,0,.13-.95c0-.22-.1-.28-.32-.27a1.93,1.93,0,0,0-.92.33A6.56,6.56,0,0,0,5,2.75c-.19.19-.35.41-.52.6L6,3.85s0,0,0,0a8.89,8.89,0,0,1-1.5,1.68.2.2,0,0,1-.22,0,1.14,1.14,0,0,0-1.08.18,1.18,1.18,0,0,0,.84,2.12,1.19,1.19,0,0,0,1-.95A1.29,1.29,0,0,0,4.93,6.06Zm1.2,5.37A1.23,1.23,0,0,0,4.45,11a1.24,1.24,0,1,0,1.68.48Zm2.22-.27a1.24,1.24,0,1,0,1.68.49A1.25,1.25,0,0,0,8.35,11.16ZM7.73,9.44a1.39,1.39,0,0,0-.31-.1c-.17,0-.25.14-.28.3-.3,1.63-.6,3.26-.89,4.9a.45.45,0,0,0,0,.2.28.28,0,0,0,.29.22.3.3,0,0,0,.29-.27c.31-1.66.61-3.32.91-5A.85.85,0,0,0,7.73,9.44Z"/><path class="cls-1" d="M4.8,11.58a.52.52,0,0,1,.7.2.53.53,0,0,1-.2.7.52.52,0,0,1-.7-.2A.51.51,0,0,1,4.8,11.58Z"/><path class="cls-1" d="M9.38,12a.51.51,0,0,1-.18.7.51.51,0,1,1-.53-.88A.53.53,0,0,1,9.38,12Z"/></g></svg>