<?xml version="1.0" encoding="utf-8"?>
<!-- Generator: Adobe Illustrator 24.1.3, SVG Export Plug-In . SVG Version: 6.00 Build 0)  -->
<svg version="1.1" id="圖層_1" xmlns="http://www.w3.org/2000/svg" xmlns:xlink="http://www.w3.org/1999/xlink" x="0px" y="0px"
	 viewBox="0 0 38 34" style="enable-background:new 0 0 38 34;" xml:space="preserve">
<style type="text/css">
	.st0{fill:url(#SVGID_1_);}
	.st1{fill:url(#SVGID_2_);}
</style>
<g>
	<g>
		
			<linearGradient id="SVGID_1_" gradientUnits="userSpaceOnUse" x1="17.0253" y1="32.2842" x2="17.0253" y2="2.4989" gradientTransform="matrix(1 3.900000e-03 3.900000e-03 -1 -1.419 35.3061)">
			<stop  offset="0" style="stop-color:#2E7BFF"/>
			<stop  offset="1" style="stop-color:#7C4BFF"/>
		</linearGradient>
		<path class="st0" d="M25.1,0.1c2.4,0.5,3.5,2,4,4c0.6,2.7,1.5,5.4,2.2,8.2c0.1,0.2,0.1,0.5,0.2,0.8c-0.4,0-0.8,0-1.1,0
			C24.6,13,19,13,13.3,13c-3.2,0-5.7,1.2-7.1,3.8c-0.5,0.9-0.6,2-0.8,3c-0.1,0.6,0,1.3,0,2.1c-1.2-0.5-2-1.2-2.4-2.2
			c-0.4-1-0.6-2.1-0.9-3.2c-0.7-2.4-1.4-4.8-2-7.2C-0.5,6.9,0.8,5,3.5,4.4c6.7-1.4,13.3-2.8,20-4.2c0.1,0,0.3-0.1,0.4-0.1
			C24.3,0.1,24.7,0.1,25.1,0.1z M21,6.8c0.4,1.5,0.8,3,1.2,4.5c1.7-0.4,3.4-0.7,5.1-1.1c-0.4-1.5-0.8-3-1.2-4.4
			C24.4,6,22.8,6.4,21,6.8z"/>
		
			<linearGradient id="SVGID_2_" gradientUnits="userSpaceOnUse" x1="24.5589" y1="32.2841" x2="24.5589" y2="2.4987" gradientTransform="matrix(1 3.900000e-03 3.900000e-03 -1 -1.419 35.3061)">
			<stop  offset="0" style="stop-color:#2E7BFF"/>
			<stop  offset="1" style="stop-color:#7C4BFF"/>
		</linearGradient>
		<path class="st1" d="M12.1,33.8c-0.7-0.3-1.4-0.5-2-0.9c-1.1-0.7-1.7-1.8-1.7-3c0-3.5,0-7,0-10.5c0-2.2,1.9-3.8,4.4-3.8
			c6.8,0,13.7,0,20.5,0.1c2.2,0,3.8,1.2,4.4,3.1c0,0.1,0.1,0.2,0.2,0.3c0,3.9,0,7.7,0,11.6c-0.5,1.8-1.8,2.8-3.8,3.3
			C26.8,33.9,19.5,33.9,12.1,33.8z M10.8,24.7c0,1.6,0,3.1,0,4.7c0,1.8,0.6,2.4,2.7,2.4c5.8,0,11.5,0,17.3,0.1c0.9,0,1.9,0,2.8,0
			c1.2,0,1.9-0.7,2-1.8c0-0.6,0-1.3,0-1.9c0-1.1,0-2.2,0-3.4C27.3,24.8,19.1,24.8,10.8,24.7z M35.5,20.9c0.3-2.1-0.3-3.2-3-3.2
			c-4.6,0.1-9.2,0-13.8,0c-1.9,0-3.8,0-5.7,0c-1.1,0-2,0.6-2.1,1.4c-0.1,0.5,0,1.1,0,1.7C19.1,20.9,27.3,20.9,35.5,20.9z"/>
	</g>
</g>
</svg>
