<svg xmlns="http://www.w3.org/2000/svg" viewBox="0 0 21.31 19.8"><defs><style>.cls-1{fill:#4a59ed;}</style></defs><title>0</title><g id="cnt"><path class="cls-1" d="M10.66,0A.63.63,0,0,0,10,.62V2.5a.63.63,0,0,0,1.25,0V.62A.62.62,0,0,0,10.66,0Z"/><path class="cls-1" d="M7.35,3.93,6.1,2.68a.62.62,0,0,0-.88.88L6.47,4.81a.62.62,0,1,0,.88-.88Z"/><path class="cls-1" d="M16.09,2.68a.63.63,0,0,0-.88,0L14,3.93a.63.63,0,0,0,0,.88.61.61,0,0,0,.88,0l1.25-1.25A.61.61,0,0,0,16.09,2.68Z"/><path class="cls-1" d="M20.69,8.74H18.77v8.74h1.92a.62.62,0,0,0,.62-.62V9.37A.63.63,0,0,0,20.69,8.74Z"/><path class="cls-1" d="M.62,8.74A.63.63,0,0,0,0,9.37v7.49a.62.62,0,0,0,.62.62H2.54V8.74Z"/><path class="cls-1" d="M10.18,9.37a1.23,1.23,0,0,0-1.12.69l-1.9,3.8a2.48,2.48,0,0,0,3.23-1.18l.41-.82H12a1.26,1.26,0,0,1,.88.37l4.63,4.63V9.37Z"/><path class="cls-1" d="M12,13.11h-.43l0,.07a3.79,3.79,0,0,1-3,2.12,4.56,4.56,0,0,1-2.44-.56.62.62,0,0,1-.3-.85L7.94,9.5a2.5,2.5,0,0,1,2.24-1.38h2.69a2.93,2.93,0,0,0,.28-1.25.63.63,0,0,0-.62-.63H7.68A1.85,1.85,0,0,0,6,7.28L5.45,8.4a.63.63,0,0,1-.56.34H3.79v8.74H6.65l1.77,1.77a1.84,1.84,0,0,0,1.89.46L15.64,18a1.86,1.86,0,0,0,.81-.49Z"/></g></svg>