<svg id="home" xmlns="http://www.w3.org/2000/svg" viewBox="0 0 67 20.89"><defs><style>.cls-1{fill:#fff;}</style></defs><title>mobile_home (1)</title><path class="cls-1" d="M0,0H9.22q3.72,0,5.4,1.11A4,4,0,0,1,16.3,4.72v.92c0,2-1.16,3.16-3.48,3.54a4.32,4.32,0,0,1,3,1.57A5.51,5.51,0,0,1,16.7,14a7,7,0,0,1-1.62,5c-1.08,1.13-3,1.7-5.86,1.7H0ZM8,7.78a1.48,1.48,0,0,0,1.19-.39,1.78,1.78,0,0,0,.32-1.12V4.19c0-.67-.49-1-1.47-1H6.65v4.6ZM10,15.52V12.94a2,2,0,0,0-.45-1.42A2.18,2.18,0,0,0,7.91,11H6.65v6l.67,0C9.09,17.06,10,16.55,10,15.52Z"/><path class="cls-1" d="M19,0h9.22q3.72,0,5.4,1.11a4,4,0,0,1,1.68,3.61v.92c0,2-1.16,3.16-3.48,3.54a4.36,4.36,0,0,1,3,1.57A5.51,5.51,0,0,1,35.66,14,7,7,0,0,1,34,19q-1.62,1.7-5.85,1.7H19Zm8,7.78a1.48,1.48,0,0,0,1.19-.39,1.78,1.78,0,0,0,.31-1.12V4.19c0-.67-.49-1-1.46-1H25.6v4.6Zm1.94,7.74V12.94a2,2,0,0,0-.46-1.42,2.14,2.14,0,0,0-1.6-.48H25.6v6l.68,0C28,17.06,28.93,16.55,28.93,15.52Z"/><path class="cls-1" d="M39.49,19.4a5.29,5.29,0,0,1-1.94-4.46V7.86a4.05,4.05,0,0,1,2.3-3.72,13.34,13.34,0,0,1,6.41-1.27q8.35,0,8.35,5V9.13c0,1.29,0,2.33-.08,3.14H44.48v3.42a2.73,2.73,0,0,0,.32,1.43c.21.35.66.52,1.34.52a1.74,1.74,0,0,0,1.13-.29,1.11,1.11,0,0,0,.4-.66,7.54,7.54,0,0,0,.06-1.1V13.88h6.88v1a5.27,5.27,0,0,1-2,4.54c-1.3,1-3.55,1.46-6.75,1.46C42.92,20.89,40.79,20.39,39.49,19.4Zm8.24-9.23V7.9c0-1.26-.52-1.9-1.55-1.9s-1.74.64-1.74,1.9v2.27Z"/><path class="cls-1" d="M59.32,20.19a2.49,2.49,0,0,1-1-2.24v-11H56.35V3.74h1.94V0H65V3.74h2v3.2H65v9.9a1.48,1.48,0,0,0,.12.68c.08.14.29.22.63.22s.51,0,.75,0l.48,0v2.89c-.4.06-1,.13-1.72.2a20.9,20.9,0,0,1-2.2.11A7.13,7.13,0,0,1,59.32,20.19Z"/></svg>